<svg xmlns="http://www.w3.org/2000/svg" width="46.529" height="47.606" viewBox="0 0 46.529 47.606">
  <g id="logo" transform="translate(-123.811 -16.82)">
    <path id="XMLID_1435_" d="M38.788,22.4l-17.12-9.921v-.738A2.341,2.341,0,0,1,22.922,9.7,5.161,5.161,0,0,0,20.669,0a5.16,5.16,0,0,0-5.36,5.157,1.2,1.2,0,0,0,2.4,0,2.761,2.761,0,0,1,2.87-2.76,2.762,2.762,0,0,1,1.2,5.191,4.736,4.736,0,0,0-2.511,4.153v.738L2.149,22.4A4.311,4.311,0,0,0,4.31,30.445H36.627A4.311,4.311,0,0,0,38.788,22.4Zm-2.161,5.642H4.31a1.912,1.912,0,0,1-.958-3.567L20.469,14.56l17.117,9.919a1.912,1.912,0,0,1-.958,3.567Z" transform="translate(123.811 22.517) rotate(-8)" fill="#fff"/>
    <path id="Path_917" data-name="Path 917" d="M6.149.1V7.508H4.662V4.354H1.487V7.508H0V.1H1.487V3.143H4.662V.1Zm6.011,6H9.207L8.719,7.508H7.158L9.823.085h1.731L14.22,7.508H12.648Zm-.4-1.189-1.073-3.1-1.073,3.1Zm9.8,2.6H20.072L16.705,2.421V7.508H15.218V.085h1.487l3.366,5.1V.085h1.487Zm6.627-5.182a1.74,1.74,0,0,0-.7-.712,2.133,2.133,0,0,0-1.041-.244,2.275,2.275,0,0,0-1.168.3,2.054,2.054,0,0,0-.8.85,2.727,2.727,0,0,0-.287,1.274,2.733,2.733,0,0,0,.292,1.3,2.068,2.068,0,0,0,.812.85,2.4,2.4,0,0,0,1.211.3A2.1,2.1,0,0,0,27.9,5.783a2.154,2.154,0,0,0,.712-1.258H26.061V3.388h4.014v1.3a3.482,3.482,0,0,1-.637,1.434A3.6,3.6,0,0,1,28.18,7.174a3.7,3.7,0,0,1-1.726.4,3.907,3.907,0,0,1-1.938-.483,3.516,3.516,0,0,1-1.359-1.343,3.854,3.854,0,0,1-.494-1.954,3.883,3.883,0,0,1,.494-1.959A3.505,3.505,0,0,1,24.516.483a4.139,4.139,0,0,1,4.1.127,3.118,3.118,0,0,1,1.274,1.715ZM32.667,1.3V3.154h2.5V4.333h-2.5V6.3h2.814V7.508h-4.3V.085h4.3V1.3Zm7.986,6.213L39.017,4.62h-.7V7.508H36.83V.1h2.782a3.249,3.249,0,0,1,1.466.3,2.114,2.114,0,0,1,.908.818,2.232,2.232,0,0,1,.3,1.152,2.207,2.207,0,0,1-.425,1.322A2.182,2.182,0,0,1,40.6,4.5l1.774,3.005Zm-2.336-4h1.243a1.241,1.241,0,0,0,.9-.292,1.087,1.087,0,0,0,.3-.812,1.037,1.037,0,0,0-.3-.791,1.271,1.271,0,0,0-.9-.281H38.316Z" transform="translate(127.325 56.928) rotate(-8)" fill="#fff"/>
  </g>
</svg>
